<mxfile host="app.diagrams.net" modified="2022-05-02T15:24:39.423Z" agent="5.0 (Windows NT 10.0; Win64; x64) AppleWebKit/537.36 (KHTML, like Gecko) Chrome/101.0.4951.41 Safari/537.36 Edg/101.0.1210.32" etag="WY9nSQyVt76MaU-lvOTY" version="17.5.0" type="github">
  <diagram id="7qyYxR2P_8wUSL6xEprl" name="Page-1">
    <mxGraphModel dx="1038" dy="579" grid="1" gridSize="10" guides="1" tooltips="1" connect="1" arrows="1" fold="1" page="1" pageScale="1" pageWidth="850" pageHeight="1100" math="0" shadow="0">
      <root>
        <mxCell id="0" />
        <mxCell id="1" parent="0" />
        <mxCell id="FAKISgi-N8UdrS4t43lj-3" value="" style="edgeStyle=orthogonalEdgeStyle;rounded=0;orthogonalLoop=1;jettySize=auto;html=1;" edge="1" parent="1" source="FAKISgi-N8UdrS4t43lj-1" target="FAKISgi-N8UdrS4t43lj-2">
          <mxGeometry relative="1" as="geometry" />
        </mxCell>
        <mxCell id="FAKISgi-N8UdrS4t43lj-1" value="start" style="rounded=1;whiteSpace=wrap;html=1;" vertex="1" parent="1">
          <mxGeometry x="80" y="30" width="90" height="20" as="geometry" />
        </mxCell>
        <mxCell id="FAKISgi-N8UdrS4t43lj-5" value="" style="edgeStyle=orthogonalEdgeStyle;rounded=0;orthogonalLoop=1;jettySize=auto;html=1;" edge="1" parent="1" source="FAKISgi-N8UdrS4t43lj-2" target="FAKISgi-N8UdrS4t43lj-4">
          <mxGeometry relative="1" as="geometry" />
        </mxCell>
        <mxCell id="FAKISgi-N8UdrS4t43lj-2" value="IF char has card action neutral&amp;nbsp;" style="rhombus;whiteSpace=wrap;html=1;" vertex="1" parent="1">
          <mxGeometry x="85" y="90" width="80" height="80" as="geometry" />
        </mxCell>
        <mxCell id="FAKISgi-N8UdrS4t43lj-7" value="" style="edgeStyle=orthogonalEdgeStyle;rounded=0;orthogonalLoop=1;jettySize=auto;html=1;" edge="1" parent="1" source="FAKISgi-N8UdrS4t43lj-4" target="FAKISgi-N8UdrS4t43lj-6">
          <mxGeometry relative="1" as="geometry" />
        </mxCell>
        <mxCell id="FAKISgi-N8UdrS4t43lj-4" value="SWITCH&amp;nbsp;&lt;br&gt;crdActnNeutrl" style="rhombus;whiteSpace=wrap;html=1;" vertex="1" parent="1">
          <mxGeometry x="85" y="250" width="80" height="80" as="geometry" />
        </mxCell>
        <mxCell id="FAKISgi-N8UdrS4t43lj-9" value="" style="edgeStyle=orthogonalEdgeStyle;rounded=0;orthogonalLoop=1;jettySize=auto;html=1;" edge="1" parent="1" source="FAKISgi-N8UdrS4t43lj-6">
          <mxGeometry relative="1" as="geometry">
            <mxPoint x="230" y="60" as="targetPoint" />
            <Array as="points">
              <mxPoint x="190" y="420" />
              <mxPoint x="190" y="60" />
            </Array>
          </mxGeometry>
        </mxCell>
        <mxCell id="FAKISgi-N8UdrS4t43lj-6" value="CASE&amp;nbsp;&lt;br&gt;shrPthRls&lt;br&gt;shrPthNoRls" style="rhombus;whiteSpace=wrap;html=1;" vertex="1" parent="1">
          <mxGeometry x="86" y="380" width="80" height="80" as="geometry" />
        </mxCell>
        <mxCell id="FAKISgi-N8UdrS4t43lj-12" value="" style="edgeStyle=orthogonalEdgeStyle;rounded=0;orthogonalLoop=1;jettySize=auto;html=1;" edge="1" parent="1" source="FAKISgi-N8UdrS4t43lj-10" target="FAKISgi-N8UdrS4t43lj-11">
          <mxGeometry relative="1" as="geometry" />
        </mxCell>
        <mxCell id="FAKISgi-N8UdrS4t43lj-10" value="Get the target truck id and player" style="rounded=0;whiteSpace=wrap;html=1;" vertex="1" parent="1">
          <mxGeometry x="230" y="30" width="120" height="60" as="geometry" />
        </mxCell>
        <mxCell id="FAKISgi-N8UdrS4t43lj-14" value="" style="edgeStyle=orthogonalEdgeStyle;rounded=0;orthogonalLoop=1;jettySize=auto;html=1;" edge="1" parent="1" source="FAKISgi-N8UdrS4t43lj-11" target="FAKISgi-N8UdrS4t43lj-13">
          <mxGeometry relative="1" as="geometry">
            <Array as="points">
              <mxPoint x="380" y="200" />
              <mxPoint x="380" y="70" />
            </Array>
          </mxGeometry>
        </mxCell>
        <mxCell id="FAKISgi-N8UdrS4t43lj-27" style="edgeStyle=orthogonalEdgeStyle;rounded=0;orthogonalLoop=1;jettySize=auto;html=1;" edge="1" parent="1" source="FAKISgi-N8UdrS4t43lj-11" target="FAKISgi-N8UdrS4t43lj-26">
          <mxGeometry relative="1" as="geometry" />
        </mxCell>
        <mxCell id="FAKISgi-N8UdrS4t43lj-11" value="IF current target is truck or tower" style="rhombus;whiteSpace=wrap;html=1;rounded=0;" vertex="1" parent="1">
          <mxGeometry x="250" y="170" width="80" height="80" as="geometry" />
        </mxCell>
        <mxCell id="FAKISgi-N8UdrS4t43lj-16" value="" style="edgeStyle=orthogonalEdgeStyle;rounded=0;orthogonalLoop=1;jettySize=auto;html=1;" edge="1" parent="1" source="FAKISgi-N8UdrS4t43lj-13" target="FAKISgi-N8UdrS4t43lj-15">
          <mxGeometry relative="1" as="geometry" />
        </mxCell>
        <mxCell id="FAKISgi-N8UdrS4t43lj-20" value="NO" style="edgeStyle=orthogonalEdgeStyle;rounded=0;orthogonalLoop=1;jettySize=auto;html=1;" edge="1" parent="1" source="FAKISgi-N8UdrS4t43lj-13" target="FAKISgi-N8UdrS4t43lj-19">
          <mxGeometry relative="1" as="geometry">
            <Array as="points">
              <mxPoint x="460" y="150" />
              <mxPoint x="460" y="150" />
            </Array>
          </mxGeometry>
        </mxCell>
        <mxCell id="FAKISgi-N8UdrS4t43lj-13" value="IF curren target is truck" style="rhombus;whiteSpace=wrap;html=1;rounded=0;" vertex="1" parent="1">
          <mxGeometry x="420" y="30" width="80" height="80" as="geometry" />
        </mxCell>
        <mxCell id="FAKISgi-N8UdrS4t43lj-18" value="" style="edgeStyle=orthogonalEdgeStyle;rounded=0;orthogonalLoop=1;jettySize=auto;html=1;" edge="1" parent="1" source="FAKISgi-N8UdrS4t43lj-15" target="FAKISgi-N8UdrS4t43lj-17">
          <mxGeometry relative="1" as="geometry" />
        </mxCell>
        <mxCell id="FAKISgi-N8UdrS4t43lj-15" value="set current target is tower&lt;span style=&quot;color: rgba(0 , 0 , 0 , 0) ; font-family: monospace ; font-size: 0px&quot;&gt;%3CmxGraphModel%3E%3Croot%3E%3CmxCell%20id%3D%220%22%2F%3E%3CmxCell%20id%3D%221%22%20parent%3D%220%22%2F%3E%3CmxCell%20id%3D%222%22%20value%3D%22get%20agent%20position%22%20style%3D%22rounded%3D1%3BwhiteSpace%3Dwrap%3Bhtml%3D1%3BfillColor%3D%23ffcc99%3BstrokeColor%3D%2336393d%3B%22%20vertex%3D%221%22%20parent%3D%221%22%3E%3CmxGeometry%20x%3D%22410%22%20y%3D%22340%22%20width%3D%22120%22%20height%3D%2260%22%20as%3D%22geometry%22%2F%3E%3C%2FmxCell%3E%3C%2Froot%3E%3C%2FmxGraphModel%3E&lt;/span&gt;" style="whiteSpace=wrap;html=1;rounded=0;" vertex="1" parent="1">
          <mxGeometry x="560" y="20" width="120" height="60" as="geometry" />
        </mxCell>
        <mxCell id="FAKISgi-N8UdrS4t43lj-17" value="get agent position" style="rounded=1;whiteSpace=wrap;html=1;fillColor=#ffcc99;strokeColor=#36393d;" vertex="1" parent="1">
          <mxGeometry x="560" y="110" width="120" height="60" as="geometry" />
        </mxCell>
        <mxCell id="FAKISgi-N8UdrS4t43lj-24" value="" style="edgeStyle=orthogonalEdgeStyle;rounded=0;orthogonalLoop=1;jettySize=auto;html=1;" edge="1" parent="1" source="FAKISgi-N8UdrS4t43lj-19" target="FAKISgi-N8UdrS4t43lj-21">
          <mxGeometry relative="1" as="geometry" />
        </mxCell>
        <mxCell id="FAKISgi-N8UdrS4t43lj-19" value="ELSE IF curren target is tower" style="rhombus;whiteSpace=wrap;html=1;rounded=0;" vertex="1" parent="1">
          <mxGeometry x="420" y="190" width="80" height="80" as="geometry" />
        </mxCell>
        <mxCell id="FAKISgi-N8UdrS4t43lj-25" value="" style="edgeStyle=orthogonalEdgeStyle;rounded=0;orthogonalLoop=1;jettySize=auto;html=1;" edge="1" parent="1" source="FAKISgi-N8UdrS4t43lj-21" target="FAKISgi-N8UdrS4t43lj-22">
          <mxGeometry relative="1" as="geometry" />
        </mxCell>
        <mxCell id="FAKISgi-N8UdrS4t43lj-21" value="set current target is truck&lt;span style=&quot;color: rgba(0 , 0 , 0 , 0) ; font-family: monospace ; font-size: 0px&quot;&gt;%3CmxGraphModel%3E%3Croot%3E%3CmxCell%20id%3D%220%22%2F%3E%3CmxCell%20id%3D%221%22%20parent%3D%220%22%2F%3E%3CmxCell%20id%3D%222%22%20value%3D%22get%20agent%20position%22%20style%3D%22rounded%3D1%3BwhiteSpace%3Dwrap%3Bhtml%3D1%3BfillColor%3D%23ffcc99%3BstrokeColor%3D%2336393d%3B%22%20vertex%3D%221%22%20parent%3D%221%22%3E%3CmxGeometry%20x%3D%22410%22%20y%3D%22340%22%20width%3D%22120%22%20height%3D%2260%22%20as%3D%22geometry%22%2F%3E%3C%2FmxCell%3E%3C%2Froot%3E%3C%2FmxGraphModel%3E&lt;/span&gt;" style="whiteSpace=wrap;html=1;rounded=0;" vertex="1" parent="1">
          <mxGeometry x="550" y="200" width="120" height="60" as="geometry" />
        </mxCell>
        <mxCell id="FAKISgi-N8UdrS4t43lj-22" value="get agent position" style="rounded=1;whiteSpace=wrap;html=1;fillColor=#ffcc99;strokeColor=#36393d;" vertex="1" parent="1">
          <mxGeometry x="550" y="290" width="120" height="60" as="geometry" />
        </mxCell>
        <mxCell id="FAKISgi-N8UdrS4t43lj-30" style="edgeStyle=orthogonalEdgeStyle;rounded=0;orthogonalLoop=1;jettySize=auto;html=1;entryX=0;entryY=0.5;entryDx=0;entryDy=0;" edge="1" parent="1" source="FAKISgi-N8UdrS4t43lj-26" target="FAKISgi-N8UdrS4t43lj-28">
          <mxGeometry relative="1" as="geometry" />
        </mxCell>
        <mxCell id="FAKISgi-N8UdrS4t43lj-35" style="edgeStyle=orthogonalEdgeStyle;rounded=0;orthogonalLoop=1;jettySize=auto;html=1;" edge="1" parent="1" source="FAKISgi-N8UdrS4t43lj-26" target="FAKISgi-N8UdrS4t43lj-32">
          <mxGeometry relative="1" as="geometry" />
        </mxCell>
        <mxCell id="FAKISgi-N8UdrS4t43lj-26" value="ELSE IF curren target not truck&amp;nbsp;" style="rhombus;whiteSpace=wrap;html=1;rounded=0;" vertex="1" parent="1">
          <mxGeometry x="250" y="360" width="80" height="80" as="geometry" />
        </mxCell>
        <mxCell id="FAKISgi-N8UdrS4t43lj-31" value="" style="edgeStyle=orthogonalEdgeStyle;rounded=0;orthogonalLoop=1;jettySize=auto;html=1;" edge="1" parent="1" source="FAKISgi-N8UdrS4t43lj-28" target="FAKISgi-N8UdrS4t43lj-29">
          <mxGeometry relative="1" as="geometry" />
        </mxCell>
        <mxCell id="FAKISgi-N8UdrS4t43lj-28" value="set current target is truck&lt;span style=&quot;color: rgba(0 , 0 , 0 , 0) ; font-family: monospace ; font-size: 0px&quot;&gt;%3CmxGraphModel%3E%3Croot%3E%3CmxCell%20id%3D%220%22%2F%3E%3CmxCell%20id%3D%221%22%20parent%3D%220%22%2F%3E%3CmxCell%20id%3D%222%22%20value%3D%22get%20agent%20position%22%20style%3D%22rounded%3D1%3BwhiteSpace%3Dwrap%3Bhtml%3D1%3BfillColor%3D%23ffcc99%3BstrokeColor%3D%2336393d%3B%22%20vertex%3D%221%22%20parent%3D%221%22%3E%3CmxGeometry%20x%3D%22410%22%20y%3D%22340%22%20width%3D%22120%22%20height%3D%2260%22%20as%3D%22geometry%22%2F%3E%3C%2FmxCell%3E%3C%2Froot%3E%3C%2FmxGraphModel%3E&lt;/span&gt;" style="whiteSpace=wrap;html=1;rounded=0;" vertex="1" parent="1">
          <mxGeometry x="390" y="330" width="120" height="60" as="geometry" />
        </mxCell>
        <mxCell id="FAKISgi-N8UdrS4t43lj-29" value="get agent position" style="rounded=1;whiteSpace=wrap;html=1;fillColor=#ffcc99;strokeColor=#36393d;" vertex="1" parent="1">
          <mxGeometry x="390" y="420" width="120" height="60" as="geometry" />
        </mxCell>
        <mxCell id="FAKISgi-N8UdrS4t43lj-36" style="edgeStyle=orthogonalEdgeStyle;rounded=0;orthogonalLoop=1;jettySize=auto;html=1;entryX=0;entryY=0.5;entryDx=0;entryDy=0;" edge="1" parent="1" source="FAKISgi-N8UdrS4t43lj-32" target="FAKISgi-N8UdrS4t43lj-33">
          <mxGeometry relative="1" as="geometry" />
        </mxCell>
        <mxCell id="FAKISgi-N8UdrS4t43lj-32" value="ELSE IF curren target not tower" style="rhombus;whiteSpace=wrap;html=1;rounded=0;" vertex="1" parent="1">
          <mxGeometry x="250" y="520" width="80" height="80" as="geometry" />
        </mxCell>
        <mxCell id="FAKISgi-N8UdrS4t43lj-37" value="" style="edgeStyle=orthogonalEdgeStyle;rounded=0;orthogonalLoop=1;jettySize=auto;html=1;" edge="1" parent="1" source="FAKISgi-N8UdrS4t43lj-33" target="FAKISgi-N8UdrS4t43lj-34">
          <mxGeometry relative="1" as="geometry" />
        </mxCell>
        <mxCell id="FAKISgi-N8UdrS4t43lj-33" value="set current target is tower&lt;span style=&quot;color: rgba(0 , 0 , 0 , 0) ; font-family: monospace ; font-size: 0px&quot;&gt;%3CmxGraphModel%3E%3Croot%3E%3CmxCell%20id%3D%220%22%2F%3E%3CmxCell%20id%3D%221%22%20parent%3D%220%22%2F%3E%3CmxCell%20id%3D%222%22%20value%3D%22get%20agent%20position%22%20style%3D%22rounded%3D1%3BwhiteSpace%3Dwrap%3Bhtml%3D1%3BfillColor%3D%23ffcc99%3BstrokeColor%3D%2336393d%3B%22%20vertex%3D%221%22%20parent%3D%221%22%3E%3CmxGeometry%20x%3D%22410%22%20y%3D%22340%22%20width%3D%22120%22%20height%3D%2260%22%20as%3D%22geometry%22%2F%3E%3C%2FmxCell%3E%3C%2Froot%3E%3C%2FmxGraphModel%3E&lt;/span&gt;" style="whiteSpace=wrap;html=1;rounded=0;" vertex="1" parent="1">
          <mxGeometry x="400" y="490" width="120" height="60" as="geometry" />
        </mxCell>
        <mxCell id="FAKISgi-N8UdrS4t43lj-40" style="edgeStyle=orthogonalEdgeStyle;rounded=0;orthogonalLoop=1;jettySize=auto;html=1;entryX=0.5;entryY=0;entryDx=0;entryDy=0;entryPerimeter=0;" edge="1" parent="1" source="FAKISgi-N8UdrS4t43lj-34" target="FAKISgi-N8UdrS4t43lj-39">
          <mxGeometry relative="1" as="geometry">
            <Array as="points">
              <mxPoint x="700" y="610" />
              <mxPoint x="700" y="30" />
              <mxPoint x="770" y="30" />
            </Array>
          </mxGeometry>
        </mxCell>
        <mxCell id="FAKISgi-N8UdrS4t43lj-34" value="get agent position" style="rounded=1;whiteSpace=wrap;html=1;fillColor=#ffcc99;strokeColor=#36393d;" vertex="1" parent="1">
          <mxGeometry x="400" y="580" width="120" height="60" as="geometry" />
        </mxCell>
        <mxCell id="FAKISgi-N8UdrS4t43lj-43" value="" style="edgeStyle=orthogonalEdgeStyle;rounded=0;orthogonalLoop=1;jettySize=auto;html=1;" edge="1" parent="1" source="FAKISgi-N8UdrS4t43lj-39" target="FAKISgi-N8UdrS4t43lj-42">
          <mxGeometry relative="1" as="geometry" />
        </mxCell>
        <mxCell id="FAKISgi-N8UdrS4t43lj-39" value="IF target is not undefined" style="rhombus;whiteSpace=wrap;html=1;" vertex="1" parent="1">
          <mxGeometry x="730" y="50" width="80" height="80" as="geometry" />
        </mxCell>
        <mxCell id="FAKISgi-N8UdrS4t43lj-48" value="" style="edgeStyle=orthogonalEdgeStyle;rounded=0;orthogonalLoop=1;jettySize=auto;html=1;" edge="1" parent="1" source="FAKISgi-N8UdrS4t43lj-42" target="FAKISgi-N8UdrS4t43lj-44">
          <mxGeometry relative="1" as="geometry" />
        </mxCell>
        <mxCell id="FAKISgi-N8UdrS4t43lj-42" value="set the target&amp;nbsp;" style="whiteSpace=wrap;html=1;" vertex="1" parent="1">
          <mxGeometry x="710" y="190" width="120" height="60" as="geometry" />
        </mxCell>
        <mxCell id="FAKISgi-N8UdrS4t43lj-49" value="" style="edgeStyle=orthogonalEdgeStyle;rounded=0;orthogonalLoop=1;jettySize=auto;html=1;" edge="1" parent="1" source="FAKISgi-N8UdrS4t43lj-44" target="FAKISgi-N8UdrS4t43lj-45">
          <mxGeometry relative="1" as="geometry" />
        </mxCell>
        <mxCell id="FAKISgi-N8UdrS4t43lj-44" value="IF chr act mode group" style="rhombus;whiteSpace=wrap;html=1;" vertex="1" parent="1">
          <mxGeometry x="720" y="280" width="80" height="80" as="geometry" />
        </mxCell>
        <mxCell id="FAKISgi-N8UdrS4t43lj-50" value="" style="edgeStyle=orthogonalEdgeStyle;rounded=0;orthogonalLoop=1;jettySize=auto;html=1;" edge="1" parent="1" source="FAKISgi-N8UdrS4t43lj-45" target="FAKISgi-N8UdrS4t43lj-46">
          <mxGeometry relative="1" as="geometry" />
        </mxCell>
        <mxCell id="FAKISgi-N8UdrS4t43lj-45" value="FOR all char" style="rhombus;whiteSpace=wrap;html=1;" vertex="1" parent="1">
          <mxGeometry x="720" y="390" width="80" height="80" as="geometry" />
        </mxCell>
        <mxCell id="FAKISgi-N8UdrS4t43lj-51" style="edgeStyle=orthogonalEdgeStyle;rounded=0;orthogonalLoop=1;jettySize=auto;html=1;entryX=1;entryY=0.5;entryDx=0;entryDy=0;" edge="1" parent="1" source="FAKISgi-N8UdrS4t43lj-46" target="FAKISgi-N8UdrS4t43lj-45">
          <mxGeometry relative="1" as="geometry">
            <Array as="points">
              <mxPoint x="860" y="530" />
              <mxPoint x="860" y="430" />
            </Array>
          </mxGeometry>
        </mxCell>
        <mxCell id="FAKISgi-N8UdrS4t43lj-52" value="next char" style="edgeLabel;html=1;align=center;verticalAlign=middle;resizable=0;points=[];" vertex="1" connectable="0" parent="FAKISgi-N8UdrS4t43lj-51">
          <mxGeometry x="-0.0356" y="1" relative="1" as="geometry">
            <mxPoint as="offset" />
          </mxGeometry>
        </mxCell>
        <mxCell id="FAKISgi-N8UdrS4t43lj-54" value="" style="edgeStyle=orthogonalEdgeStyle;rounded=0;orthogonalLoop=1;jettySize=auto;html=1;" edge="1" parent="1" source="FAKISgi-N8UdrS4t43lj-46" target="FAKISgi-N8UdrS4t43lj-53">
          <mxGeometry relative="1" as="geometry" />
        </mxCell>
        <mxCell id="FAKISgi-N8UdrS4t43lj-46" value="set the leader target agent, target postion" style="whiteSpace=wrap;html=1;" vertex="1" parent="1">
          <mxGeometry x="720" y="500" width="120" height="60" as="geometry" />
        </mxCell>
        <mxCell id="FAKISgi-N8UdrS4t43lj-58" value="" style="edgeStyle=orthogonalEdgeStyle;rounded=0;orthogonalLoop=1;jettySize=auto;html=1;" edge="1" parent="1" source="FAKISgi-N8UdrS4t43lj-53" target="FAKISgi-N8UdrS4t43lj-57">
          <mxGeometry relative="1" as="geometry" />
        </mxCell>
        <mxCell id="FAKISgi-N8UdrS4t43lj-53" value="IF char&amp;nbsp;shrPthNoRls" style="rhombus;whiteSpace=wrap;html=1;" vertex="1" parent="1">
          <mxGeometry x="740" y="600" width="80" height="80" as="geometry" />
        </mxCell>
        <mxCell id="FAKISgi-N8UdrS4t43lj-57" value="call&amp;nbsp;&amp;nbsp;findPathRules" style="rounded=1;whiteSpace=wrap;html=1;fillColor=#f8cecc;gradientColor=#ea6b66;strokeColor=#b85450;" vertex="1" parent="1">
          <mxGeometry x="720" y="700" width="120" height="60" as="geometry" />
        </mxCell>
      </root>
    </mxGraphModel>
  </diagram>
</mxfile>
